<svg width="64" height="64" viewBox="0 0 64 64" xmlns="http://www.w3.org/2000/svg">
  <rect width="64" height="64" rx="14" fill="#14161C"/>
  <path d="M20 14h16l8 8v28a2 2 0 0 1-2 2H20a2 2 0 0 1-2-2V16a2 2 0 0 1 2-2z" fill="#F4EEE2"/>
  <path d="M36 14l8 8h-6a2 2 0 0 1-2-2v-6z" fill="#C1542C"/>
  <rect x="23" y="30" width="14" height="2.4" rx="1.2" fill="#14161C" opacity="0.55"/>
  <rect x="23" y="35.5" width="18" height="2.4" rx="1.2" fill="#14161C" opacity="0.55"/>
  <rect x="23" y="41" width="10" height="2.4" rx="1.2" fill="#14161C" opacity="0.55"/>
  <circle cx="47" cy="47" r="5.5" fill="#E8A33D"/>
</svg>
